<?xml version="1.0" encoding="utf-8"?>
<!DOCTYPE svg PUBLIC "-//W3C//DTD SVG 1.1//EN" "http://www.w3.org/Graphics/SVG/1.1/DTD/svg11.dtd">

<!-- Copyright 2011 Markus Penz -->

<svg version="1.1"
	 id="Layer_1" inkscape:version="0.48.1 r9760" sodipodi:docname="strom-logo-rgb-text_neu.svg" xmlns:dc="http://purl.org/dc/elements/1.1/" xmlns:svg="http://www.w3.org/2000/svg" xmlns:cc="http://creativecommons.org/ns#" xmlns:rdf="http://www.w3.org/1999/02/22-rdf-syntax-ns#" xmlns:inkscape="http://www.inkscape.org/namespaces/inkscape" xmlns:sodipodi="http://sodipodi.sourceforge.net/DTD/sodipodi-0.dtd"
	 xmlns="http://www.w3.org/2000/svg" xmlns:xlink="http://www.w3.org/1999/xlink" x="0px" y="0px" width="595.281px"
	 height="841.89px" viewBox="0 0 595.281 841.89" enable-background="new 0 0 595.281 841.89" xml:space="preserve">
<sodipodi:namedview  id="namedview3026" inkscape:pageopacity="0" inkscape:pageshadow="2" inkscape:window-width="1392" inkscape:window-height="953" inkscape:guide-bbox="true" inkscape:window-x="245" inkscape:window-y="0" inkscape:current-layer="Layer_1" inkscape:window-maximized="0" inkscape:zoom="0.50383782" showgrid="false" guidetolerance="10" borderopacity="1" inkscape:cx="302.61004" pagecolor="#ffffff" showguides="true" inkscape:cy="255.4125" objecttolerance="10" bordercolor="#666666" gridtolerance="10">
	</sodipodi:namedview>
<g id="g2986">
	<path id="path2988" d="M85.235,768.464c6.528,0,11.598-1.395,15.518-3.982l0,0c4.578-2.986,6.542-6.598,6.646-12.336l0,0
		c-0.09-6.07-3.797-10.291-14.951-13.514l0,0c-0.215-0.068-0.747-0.25-1.411-0.441l0,0c-0.574-0.166-1.459-0.389-2.808-0.65l0,0
		c-14.314-3.762-23.532-7.053-28.581-10.953l0,0c-5.449-4.197-8.339-10.477-8.277-17.621l0,0
		c-0.09-8.533,3.941-15.795,11.209-20.344l0,0c6.155-3.941,13.533-5.865,21.825-5.852l0,0c8.575-0.027,16.057,2.297,21.977,7.109
		l0,0c6.051,5.006,9.577,12.156,10.518,20.705l0,0l0.408,3.732h-3.72h-8.112l-0.401-2.904c-1.915-12.102-7.689-16.914-21.34-17.289
		l0,0c-5.629,0-10.193,1.219-13.934,3.527l0,0c-4.419,2.82-6.141,5.893-6.245,10.637l0,0c-0.262,5.863,6.494,12.031,23.982,16.416
		l0,0l0.92,0.221l0.172,0.193c0.153,0.029,0.333,0.057,0.588,0.098l0,0c9.288,2.408,15.836,4.785,20.02,7.607l0,0
		c6.75,4.35,10.422,11.354,10.338,19.488l0,0c0.069,8.719-3.935,16.25-11.341,21.297l0,0C101.783,777.882,94.086,780,85.477,780l0,0
		c-0.035,0-0.069,0-0.097,0l0,0c-9.765,0.014-18.152-2.439-24.771-7.564l0,0c-6.88-5.477-10.781-13.555-11.577-23.348l0,0
		l-0.317-3.637h3.651h7.96l0.511,2.768C63.729,762.351,70.693,768.146,85.235,768.464L85.235,768.464v3.348"/>
</g>
<g id="g2990">
	<path id="polygon2992_3_" d="M139.859,660.876"/>
	<polyline id="polygon2992_1_" points="143.207,660.876 143.207,684.554 160.542,684.554 160.542,687.902 160.542,695.923 
		143.22,695.91 143.22,777.787 139.859,777.787 131.166,777.787 131.166,660.876 	"/>
</g>
<g id="g2994">
	<path id="path2996" d="M178.381,777.718h-8.679v-89.885v-3.348h3.354h8.672v7.813c5.947-5.09,12.46-7.564,22.785-7.498l0,0
		c0.09,0,2.422-0.023,2.872,0.029l0,0l5.795,0.553l-7.745,10.801h-1.702c-3.927-0.025-6.652,0.391-7.883,0.857l0,0
		c-2.904,0.844-6.362,3.225-10.068,7.469l0,0c-2.648,3.125-4.018,7.039-4.039,12.336l0,0v60.869h-3.362V777.718L178.381,777.718z"/>
</g>
<g id="g2998">
	<path id="path3000" d="M250.8,779.917c-13.934,0.068-25.365-4.896-32.917-14.689l0,0c-6.777-8.836-10.041-20.232-10.027-33.844l0,0
		c-0.014-13.582,3.25-24.93,10.013-33.662l0,0l0,0c7.531-10,18.962-15.104,32.931-15.033l0,0
		c13.968-0.07,25.448,5.033,33.069,15.006l0,0c6.791,8.727,10.054,20.082,10.054,33.689l0,0c0,13.609-3.264,25.008-10.096,33.898
		l0,0c-7.689,9.695-19.059,14.635-32.778,14.635l0,0C250.965,779.917,250.882,779.917,250.8,779.917L250.8,779.917z M227.523,757.65
		c5.449,7.453,12.696,10.98,23.277,11.063l0,0c10.531-0.082,17.89-3.609,23.463-11.078l0,0c4.661-6.383,7.15-15.047,7.15-26.25l0,0
		c0-11.086-2.475-19.75-7.15-26.264l0,0c-5.573-7.455-12.932-10.996-23.463-11.072l0,0c-10.699,0.09-17.925,3.631-23.264,11.072l0,0
		c-4.703,6.514-7.185,15.178-7.185,26.264l0,0c0,11.203,2.511,19.867,7.157,26.25l0,0"/>
</g>
<g id="g3002" transform="translate(-16,0)">
	<path id="path3004" inkscape:connector-curvature="0" d="M430.938,777.718h-8.271v-55.363c0.027-9.461-0.871-16.029-2.164-19.061
		l0,0c-2.539-6.078-6.979-8.963-15.813-9.1l0,0c-9.13,0.104-14.521,3.182-18.035,9.592l0,0c-2.67,5.096-4.238,13.133-4.228,23.896
		l0,0v50.031h-3.174h-8.133v-55.354c0.029-9.459-0.871-16.037-2.156-19.055l0,0c-2.545-6.084-6.983-8.969-15.824-9.129l0,0
		c-12.983,0.35-19.028,5.729-21.479,19.115l0,0c-0.199,1.549-0.373,3.582-0.521,6.029l0,0c-0.149,2.406-0.248,5.199-0.248,8.367l0,0
		v50.039H327.7h-8.277V687.83v-3.346h3.195h8.27v7.254c5.787-6.031,13.525-9.186,22.578-9.096l0,0
		c11.563-0.205,20.537,4.564,25.146,13.467l0,0c6.229-8.84,15.297-13.584,26.252-13.467l0,0c9.246-0.027,16.879,2.828,21.955,8.895
		l0,0c5.073,6.045,7.313,14.674,7.313,25.461l0,0v60.717h-3.194V777.718L430.938,777.718z"/>
</g>
<path id="path3006" d="M293.923,634.585H64.491c120.178,0,114.718-191.195,114.718-286.792c0-130.398,0-95.601,0-286.794h114.714
	V634.585L293.923,634.585z"/>
<path id="path3010" sodipodi:nodetypes="ccssccssc" inkscape:connector-curvature="0" d="M542.349,634.585H427.63V444.955
	c0-65.227-124.207-79.524-124.207-194.328V61H418.14v189.627c0,60.894,122.918,71.899,124.209,194.328V634.585z"/>
<g>
	<path id="path3010_2_" sodipodi:nodetypes="ccssccssc" inkscape:connector-curvature="0" d="M542.349,634.585H427.63V444.955
		c0-65.227-124.207-79.524-124.207-194.328V61H418.14v189.627c0,60.894,122.918,71.899,124.209,194.328V634.585z"/>
	<g>
		<path d="M417.951,441.277c0.044,0.646,0.095,1.289,0.133,1.936C418.056,442.56,418.009,441.916,417.951,441.277z"/>
		<path d="M418.083,443.212c-0.038-0.646-0.089-1.289-0.133-1.938c-1.982-21.573-21.294-37.264-45.418-56.849
			c-11.085-8.999-23.026-18.696-34.173-29.964c-20.759,22.464-34.467,45.881-34.938,90.465v189.656H418.13V444.955
			C418.13,444.369,418.109,443.791,418.083,443.212z"/>
		<path d="M469.981,304.677c12.22,9.642,25.449,20.085,37.641,32.632c20.795-22.084,34.708-44.85,34.708-86.692V60.992H427.642
			v189.625c0,0.034,0.001,0.065,0.001,0.1C427.697,271.31,446.36,286.039,469.981,304.677z"/>
	</g>
</g>
<g>
	<path d="M542.349,777.716h-16.935l-40.813-39.902l-40.35,39.902H427.63l48.376-48.02l-46.831-45.211h17.222l38.408,36.889
		l37.476-36.889h16.917l-46.026,45.176L542.349,777.716z"/>
</g>
</svg>
