<?xml version="1.0" encoding="utf-8"?>

<!-- Copyright 2011 Markus Penz -->

<svg version="1.2" baseProfile="tiny" id="Layer_1" xmlns="http://www.w3.org/2000/svg" xmlns:xlink="http://www.w3.org/1999/xlink"
	 x="0px" y="0px" width="66.599px" height="101.536px" viewBox="0 0 66.599 101.536" xml:space="preserve">
<g>
	<path fill="#808080" d="M18.835,101.536c-1.379,0.002-2.564-0.344-3.498-1.068l0,0c-0.971-0.773-1.523-1.914-1.635-3.297l0,0
		l-0.045-0.514h0.516h1.125l0.072,0.391c0.406,1.996,1.389,2.814,3.443,2.859l0,0v0.473v0.211v-0.211v-0.473
		c0.922,0,1.637-0.197,2.191-0.563l0,0c0.646-0.422,0.924-0.932,0.938-1.742l0,0c-0.012-0.857-0.535-1.453-2.111-1.908l0,0
		c-0.029-0.01-0.105-0.035-0.199-0.063l0,0c-0.08-0.023-0.205-0.055-0.396-0.092l0,0c-2.021-0.531-3.324-0.996-4.037-1.547l0,0
		c-0.77-0.592-1.178-1.479-1.168-2.488l0,0c-0.014-1.205,0.557-2.23,1.582-2.873l0,0c0.869-0.557,1.912-0.828,3.082-0.826l0,0
		c1.211-0.004,2.268,0.324,3.105,1.004l0,0c0.854,0.707,1.352,1.717,1.484,2.924l0,0l0.059,0.527h-0.527h-1.145l-0.057-0.41
		c-0.27-1.709-1.086-2.389-3.014-2.441l0,0c-0.795,0-1.439,0.172-1.967,0.498l0,0c-0.623,0.398-0.867,0.832-0.881,1.502l0,0
		c-0.037,0.828,0.916,1.699,3.385,2.318l0,0l0.131,0.031l0.025,0.027c0.02,0.004,0.047,0.008,0.082,0.014l0,0
		c1.311,0.34,2.236,0.676,2.828,1.074l0,0c0.953,0.615,1.471,1.604,1.459,2.752l0,0c0.01,1.232-0.555,2.295-1.602,3.008l0,0
		c-0.91,0.604-1.998,0.902-3.213,0.902l0,0C18.845,101.536,18.839,101.536,18.835,101.536L18.835,101.536z"/>
</g>
<g>
	<polygon fill="#808080" points="26.527,101.223 25.3,101.223 25.3,84.713 25.773,84.713 26.527,84.713 26.527,85.186 
		26.527,84.713 27,84.713 27,88.057 29.449,88.057 29.449,88.53 29.449,89.663 27.001,89.661 27.001,101.223 26.527,101.223 	"/>
</g>
<g>
	<path fill="#4D4D4D" d="M31.826,101.213h-1.227V88.52v-0.473h0.475h1.225v1.104c0.838-0.719,2.041-1.068,3.5-1.059l0,0
		c0.012,0,0.059-0.004,0.123,0.004l0,0l0.818,0.078L35.646,89.7h-0.24c-0.555-0.004-0.939,0.055-1.113,0.121l0,0
		c-0.41,0.119-0.898,0.455-1.422,1.055l0,0c-0.375,0.441-0.568,0.994-0.57,1.742l0,0v8.596H31.826L31.826,101.213z"/>
</g>
<g>
	<path fill="#4D4D4D" d="M42.476,101.524c-1.967,0.01-3.582-0.691-4.648-2.074l0,0c-0.957-1.248-1.418-2.857-1.416-4.779l0,0
		c-0.002-1.918,0.459-3.521,1.414-4.754l0,0l0,0c1.063-1.412,2.678-2.133,4.65-2.123l0,0c1.973-0.01,3.594,0.711,4.67,2.119l0,0
		c0.959,1.232,1.42,2.836,1.42,4.758l0,0c0,1.922-0.461,3.531-1.426,4.787l0,0c-1.086,1.369-2.691,2.066-4.629,2.066l0,0
		C42.5,101.524,42.488,101.524,42.476,101.524L42.476,101.524z M39.189,98.379c0.77,1.053,1.793,1.551,3.287,1.563l0,0
		c1.488-0.012,2.527-0.51,3.314-1.564l0,0c0.658-0.902,1.01-2.125,1.01-3.707l0,0c0-1.566-0.35-2.789-1.01-3.709l0,0
		c-0.787-1.053-1.826-1.553-3.314-1.564l0,0c-1.51,0.012-2.531,0.512-3.285,1.564l0,0c-0.664,0.92-1.014,2.143-1.014,3.709l0,0
		c0,1.582,0.354,2.805,1.01,3.707l0,0"/>
</g>
<g>
	<path fill="#1A1A1A" d="M66.148,101.213H64.98v-7.818c0.004-1.336-0.123-2.264-0.305-2.691l0,0
		c-0.359-0.859-0.986-1.266-2.234-1.285l0,0c-1.289,0.014-2.051,0.449-2.547,1.354l0,0c-0.377,0.719-0.598,1.854-0.596,3.375l0,0
		v7.066h-0.449h-1.148v-7.818c0.004-1.336-0.123-2.264-0.305-2.691l0,0c-0.359-0.859-0.986-1.266-2.234-1.289l0,0
		c-1.834,0.049-2.688,0.809-3.033,2.699l0,0c-0.029,0.219-0.053,0.506-0.074,0.852l0,0c-0.021,0.34-0.035,0.734-0.035,1.182l0,0
		v7.066h-0.451H50.4V88.52v-0.473h0.451h1.168v1.025c0.818-0.852,1.91-1.297,3.189-1.285l0,0c1.633-0.029,2.9,0.645,3.551,1.902l0,0
		c0.879-1.248,2.16-1.918,3.707-1.902l0,0c1.305-0.004,2.383,0.4,3.1,1.256l0,0c0.717,0.854,1.033,2.072,1.033,3.596l0,0v8.574
		H66.148L66.148,101.213z"/>
</g>
<path fill="#808080" d="M27,81H0C9,81,10.8,63.618,10.8,40.5c0-22.665,0-40.5,0-40.5H27V81z"/>
<rect x="30.599" fill="#4D4D4D" width="16.201" height="81"/>
<rect x="50.4" fill="#1A1A1A" width="16.199" height="81"/>
</svg>
