<?xml version="1.0" encoding="utf-8"?>

<!-- Copyright 2011 Markus Penz -->

<svg version="1.2" baseProfile="tiny" id="Layer_1" xmlns="http://www.w3.org/2000/svg" xmlns:xlink="http://www.w3.org/1999/xlink"
	 x="0px" y="0px" width="363.599px" height="243px" viewBox="0 0 363.599 243" xml:space="preserve">
<g>
	<path fill="#BF1E2D" d="M18.813,99.906c0.922,0,1.638-0.197,2.192-0.563l0,0c0.646-0.421,0.923-0.931,0.938-1.741l0,0
		c-0.013-0.858-0.536-1.453-2.111-1.908l0,0c-0.03-0.011-0.106-0.035-0.199-0.063l0,0c-0.081-0.023-0.206-0.054-0.397-0.091l0,0
		c-2.021-0.531-3.323-0.997-4.036-1.548l0,0c-0.77-0.592-1.178-1.479-1.169-2.488l0,0c-0.013-1.204,0.557-2.23,1.583-2.873l0,0
		c0.869-0.556,1.911-0.827,3.082-0.825l0,0c1.211-0.004,2.268,0.323,3.104,1.003l0,0c0.854,0.707,1.352,1.718,1.485,2.925l0,0
		l0.058,0.526h-0.526h-1.145l-0.057-0.41c-0.271-1.709-1.086-2.388-3.014-2.44l0,0c-0.795,0-1.439,0.172-1.967,0.498l0,0
		c-0.624,0.398-0.868,0.832-0.882,1.502l0,0c-0.037,0.827,0.917,1.698,3.386,2.318l0,0l0.13,0.031l0.025,0.027
		c0.021,0.003,0.047,0.008,0.083,0.013l0,0c1.311,0.341,2.236,0.676,2.827,1.075l0,0c0.953,0.615,1.472,1.603,1.46,2.751l0,0
		c0.01,1.233-0.556,2.296-1.602,3.009l0,0c-0.911,0.603-1.998,0.901-3.214,0.901l0,0c-0.004,0-0.009,0-0.013,0l0,0
		c-1.379,0.002-2.564-0.344-3.498-1.068l0,0c-0.972-0.773-1.523-1.913-1.635-3.297l0,0l-0.045-0.513h0.516h1.124l0.072,0.39
		C15.776,99.044,16.76,99.861,18.813,99.906L18.813,99.906v0.474"/>
</g>
<g>
	<polygon fill="#BF1E2D" points="26.527,101.223 25.3,101.223 25.3,84.713 25.773,84.713 26.527,84.713 26.527,85.187 
		26.527,84.713 27,84.713 27,88.057 29.448,88.057 29.448,88.53 29.448,89.662 27.002,89.66 27.002,101.223 26.527,101.223 	"/>
</g>
<g>
	<path fill="#009445" d="M31.826,101.213H30.6V88.52v-0.472h0.474h1.225v1.103c0.839-0.719,2.042-1.068,3.5-1.058l0,0
		c0.013,0,0.059-0.004,0.124,0.003l0,0l0.818,0.078L35.646,89.7h-0.24c-0.555-0.004-0.94,0.054-1.113,0.121l0,0
		c-0.41,0.119-0.899,0.454-1.423,1.055l0,0c-0.374,0.44-0.568,0.993-0.57,1.741l0,0v8.596H31.826L31.826,101.213z"/>
</g>
<g>
	<path fill="#009445" d="M42.477,101.524c-1.967,0.009-3.582-0.691-4.649-2.074l0,0c-0.956-1.248-1.418-2.857-1.415-4.779l0,0
		c-0.003-1.918,0.458-3.522,1.414-4.754l0,0l-0.001-0.001c1.063-1.412,2.679-2.132,4.651-2.122l0,0
		c1.973-0.01,3.594,0.71,4.669,2.118l0,0c0.96,1.232,1.421,2.837,1.421,4.759l0,0c0,1.922-0.461,3.531-1.426,4.787l0,0
		c-1.087,1.368-2.692,2.066-4.63,2.066l0,0C42.499,101.524,42.488,101.524,42.477,101.524L42.477,101.524z M39.188,98.38
		c0.771,1.052,1.794,1.551,3.288,1.563l0,0c1.488-0.012,2.527-0.511,3.313-1.565l0,0c0.659-0.901,1.01-2.124,1.01-3.706l0,0
		c0-1.566-0.35-2.789-1.01-3.709l0,0c-0.786-1.054-1.825-1.553-3.313-1.564l0,0c-1.51,0.012-2.532,0.511-3.286,1.563l0,0
		c-0.663,0.921-1.014,2.144-1.014,3.71l0,0c0,1.582,0.354,2.805,1.01,3.706l0,0"/>
</g>
<g>
	<path fill="#1B75BC" d="M66.147,101.213h-1.168v-7.817c0.004-1.337-0.123-2.264-0.305-2.691l0,0
		c-0.359-0.859-0.986-1.266-2.233-1.286l0,0c-1.29,0.014-2.051,0.449-2.547,1.354l0,0c-0.377,0.72-0.599,1.854-0.597,3.376l0,0
		v7.065h-0.449H57.7v-7.817c0.004-1.337-0.122-2.264-0.304-2.691l0,0c-0.359-0.859-0.987-1.266-2.234-1.289l0,0
		c-1.835,0.048-2.688,0.808-3.034,2.699l0,0c-0.028,0.218-0.053,0.506-0.074,0.851l0,0c-0.021,0.341-0.034,0.735-0.034,1.183l0,0
		v7.065h-0.451h-1.169V88.52v-0.472h0.451h1.169v1.024c0.817-0.851,1.91-1.297,3.189-1.285l0,0c1.633-0.028,2.899,0.646,3.551,1.902
		l0,0c0.878-1.247,2.159-1.917,3.706-1.902l0,0c1.306-0.004,2.383,0.401,3.101,1.257l0,0c0.716,0.853,1.033,2.072,1.033,3.596l0,0
		v8.573H66.147L66.147,101.213z"/>
</g>
<path fill="#BF1E2D" d="M27,81H0c9,0,10.8-17.382,10.8-40.5c0-22.665,0-40.5,0-40.5H27V81z"/>
<rect x="30.6" fill="#009445" width="16.2" height="81"/>
<rect x="50.399" fill="#1B75BC" width="16.2" height="81"/>
<g>
	<path d="M166.436,101.535c-1.379,0.002-2.564-0.344-3.498-1.068l0,0c-0.972-0.773-1.523-1.913-1.635-3.297l0,0l-0.045-0.513h0.516
		h1.124l0.072,0.39c0.406,1.997,1.39,2.814,3.443,2.859l0,0v0.474v0.21v-0.21v-0.474c0.922,0,1.638-0.197,2.192-0.563l0,0
		c0.646-0.421,0.923-0.931,0.938-1.741l0,0c-0.013-0.858-0.536-1.453-2.111-1.908l0,0c-0.03-0.011-0.106-0.035-0.199-0.063l0,0
		c-0.081-0.023-0.206-0.054-0.397-0.091l0,0c-2.021-0.531-3.323-0.997-4.036-1.548l0,0c-0.77-0.592-1.178-1.479-1.169-2.488l0,0
		c-0.013-1.204,0.557-2.23,1.583-2.873l0,0c0.869-0.556,1.911-0.827,3.082-0.825l0,0c1.211-0.004,2.268,0.323,3.104,1.003l0,0
		c0.854,0.707,1.352,1.718,1.485,2.925l0,0l0.058,0.526h-0.526h-1.145l-0.057-0.41c-0.271-1.709-1.086-2.388-3.014-2.44l0,0
		c-0.795,0-1.439,0.172-1.967,0.498l0,0c-0.624,0.398-0.868,0.832-0.882,1.502l0,0c-0.037,0.827,0.917,1.698,3.386,2.318l0,0
		l0.13,0.031l0.025,0.027c0.021,0.003,0.047,0.008,0.083,0.013l0,0c1.311,0.341,2.236,0.676,2.827,1.075l0,0
		c0.953,0.615,1.472,1.603,1.46,2.751l0,0c0.01,1.233-0.556,2.296-1.602,3.009l0,0c-0.911,0.603-1.998,0.901-3.214,0.901l0,0
		C166.444,101.535,166.439,101.535,166.436,101.535L166.436,101.535z"/>
</g>
<g>
	<polygon points="174.127,101.223 172.899,101.223 172.899,84.713 173.373,84.713 174.127,84.713 174.127,85.187 174.127,84.713 
		174.6,84.713 174.6,88.057 177.048,88.057 177.048,88.53 177.048,89.662 174.602,89.66 174.602,101.223 174.127,101.223 	"/>
</g>
<g>
	<path d="M179.426,101.213h-1.227V88.52v-0.472h0.474h1.225v1.103c0.839-0.719,2.042-1.068,3.5-1.058l0,0
		c0.013,0,0.059-0.004,0.124,0.003l0,0l0.818,0.078l-1.094,1.526h-0.24c-0.555-0.004-0.94,0.054-1.113,0.121l0,0
		c-0.41,0.119-0.899,0.454-1.423,1.055l0,0c-0.374,0.44-0.568,0.993-0.57,1.741l0,0v8.596H179.426L179.426,101.213z"/>
</g>
<g>
	<path d="M190.077,101.524c-1.967,0.009-3.582-0.691-4.65-2.074l0,0c-0.956-1.248-1.418-2.857-1.415-4.779l0,0
		c-0.003-1.918,0.458-3.522,1.414-4.754l0,0l-0.001-0.001c1.064-1.412,2.679-2.132,4.652-2.122l0,0
		c1.973-0.01,3.593,0.71,4.669,2.118l0,0c0.959,1.232,1.42,2.837,1.42,4.759l0,0c0,1.922-0.461,3.531-1.426,4.787l0,0
		c-1.086,1.368-2.692,2.066-4.63,2.066l0,0C190.098,101.524,190.088,101.524,190.077,101.524L190.077,101.524z M186.788,98.38
		c0.771,1.052,1.795,1.551,3.289,1.563l0,0c1.488-0.012,2.527-0.511,3.313-1.565l0,0c0.658-0.901,1.01-2.124,1.01-3.706l0,0
		c0-1.566-0.35-2.789-1.01-3.709l0,0c-0.786-1.054-1.825-1.553-3.313-1.564l0,0c-1.51,0.012-2.533,0.511-3.287,1.563l0,0
		c-0.662,0.921-1.014,2.144-1.014,3.71l0,0c0,1.582,0.354,2.805,1.01,3.706l0,0"/>
</g>
<g>
	<path d="M213.748,101.213h-1.168v-7.817c0.004-1.337-0.123-2.264-0.305-2.691l0,0c-0.359-0.859-0.986-1.266-2.234-1.286l0,0
		c-1.289,0.014-2.051,0.449-2.547,1.354l0,0c-0.377,0.72-0.598,1.854-0.596,3.376l0,0v7.065h-0.449H205.3v-7.817
		c0.004-1.337-0.123-2.264-0.305-2.691l0,0c-0.359-0.859-0.986-1.266-2.234-1.289l0,0c-1.834,0.048-2.688,0.808-3.033,2.699l0,0
		c-0.029,0.218-0.053,0.506-0.074,0.851l0,0c-0.021,0.341-0.035,0.735-0.035,1.183l0,0v7.065h-0.451H198V88.52v-0.472h0.451h1.168
		v1.024c0.818-0.851,1.91-1.297,3.189-1.285l0,0c1.633-0.028,2.9,0.646,3.551,1.902l0,0c0.879-1.247,2.16-1.917,3.707-1.902l0,0
		c1.305-0.004,2.383,0.401,3.1,1.257l0,0c0.717,0.853,1.033,2.072,1.033,3.596l0,0v8.573H213.748L213.748,101.213z"/>
</g>
<path d="M174.6,81h-27c9,0,10.8-17.382,10.8-40.5c0-22.665,0-40.5,0-40.5h16.2V81z"/>
<rect x="178.199" width="16.201" height="81"/>
<rect x="198" width="16.199" height="81"/>
<g>
	<path fill="#808080" d="M315.835,101.535c-1.379,0.002-2.564-0.344-3.498-1.068l0,0c-0.971-0.773-1.523-1.913-1.635-3.297l0,0
		l-0.045-0.513h0.516h1.125l0.072,0.39c0.406,1.997,1.389,2.814,3.443,2.859l0,0v0.474v0.21v-0.21v-0.474
		c0.922,0,1.637-0.197,2.191-0.563l0,0c0.646-0.421,0.924-0.931,0.938-1.741l0,0c-0.012-0.858-0.535-1.453-2.111-1.908l0,0
		c-0.029-0.011-0.105-0.035-0.199-0.063l0,0c-0.08-0.023-0.205-0.054-0.396-0.091l0,0c-2.021-0.531-3.324-0.997-4.037-1.548l0,0
		c-0.77-0.592-1.178-1.479-1.168-2.488l0,0c-0.014-1.204,0.557-2.23,1.582-2.873l0,0c0.869-0.556,1.912-0.827,3.082-0.825l0,0
		c1.211-0.004,2.268,0.323,3.105,1.003l0,0c0.854,0.707,1.352,1.718,1.484,2.925l0,0l0.059,0.526h-0.527h-1.145l-0.057-0.41
		c-0.27-1.709-1.086-2.388-3.014-2.44l0,0c-0.795,0-1.439,0.172-1.967,0.498l0,0c-0.623,0.398-0.867,0.832-0.881,1.502l0,0
		c-0.037,0.827,0.916,1.698,3.385,2.318l0,0l0.131,0.031l0.025,0.027c0.02,0.003,0.047,0.008,0.082,0.013l0,0
		c1.311,0.341,2.236,0.676,2.828,1.075l0,0c0.953,0.615,1.471,1.603,1.459,2.751l0,0c0.01,1.233-0.555,2.296-1.602,3.009l0,0
		c-0.91,0.603-1.998,0.901-3.213,0.901l0,0C315.845,101.535,315.839,101.535,315.835,101.535L315.835,101.535z"/>
</g>
<g>
	<polygon fill="#808080" points="323.527,101.223 322.3,101.223 322.3,84.713 322.773,84.713 323.527,84.713 323.527,85.187 
		323.527,84.713 324,84.713 324,88.057 326.449,88.057 326.449,88.53 326.449,89.662 324.001,89.66 324.001,101.223 
		323.527,101.223 	"/>
</g>
<g>
	<path fill="#4D4D4D" d="M328.826,101.213h-1.227V88.52v-0.472h0.475h1.225v1.103c0.838-0.719,2.041-1.068,3.5-1.058l0,0
		c0.012,0,0.059-0.004,0.123,0.003l0,0l0.818,0.078l-1.094,1.526h-0.24c-0.555-0.004-0.939,0.054-1.113,0.121l0,0
		c-0.41,0.119-0.898,0.454-1.422,1.055l0,0c-0.375,0.44-0.568,0.993-0.57,1.741l0,0v8.596H328.826L328.826,101.213z"/>
</g>
<g>
	<path fill="#4D4D4D" d="M339.476,101.524c-1.967,0.009-3.582-0.691-4.648-2.074l0,0c-0.957-1.248-1.418-2.857-1.416-4.779l0,0
		c-0.002-1.918,0.459-3.522,1.414-4.754l0,0v-0.001c1.063-1.412,2.678-2.132,4.65-2.122l0,0c1.973-0.01,3.594,0.71,4.67,2.118l0,0
		c0.959,1.232,1.42,2.837,1.42,4.759l0,0c0,1.922-0.461,3.531-1.426,4.787l0,0c-1.086,1.368-2.691,2.066-4.629,2.066l0,0
		C339.5,101.524,339.488,101.524,339.476,101.524L339.476,101.524z M336.189,98.38c0.77,1.052,1.793,1.551,3.287,1.563l0,0
		c1.488-0.012,2.527-0.511,3.314-1.565l0,0c0.658-0.901,1.01-2.124,1.01-3.706l0,0c0-1.566-0.35-2.789-1.01-3.709l0,0
		c-0.787-1.054-1.826-1.553-3.314-1.564l0,0c-1.51,0.012-2.531,0.511-3.285,1.563l0,0c-0.664,0.921-1.014,2.144-1.014,3.71l0,0
		c0,1.582,0.354,2.805,1.01,3.706l0,0"/>
</g>
<g>
	<path fill="#1A1A1A" d="M363.148,101.213h-1.168v-7.817c0.004-1.337-0.123-2.264-0.305-2.691l0,0
		c-0.359-0.859-0.986-1.266-2.234-1.286l0,0c-1.289,0.014-2.051,0.449-2.547,1.354l0,0c-0.377,0.72-0.598,1.854-0.596,3.376l0,0
		v7.065h-0.449h-1.148v-7.817c0.004-1.337-0.123-2.264-0.305-2.691l0,0c-0.359-0.859-0.986-1.266-2.234-1.289l0,0
		c-1.834,0.048-2.688,0.808-3.033,2.699l0,0c-0.029,0.218-0.053,0.506-0.074,0.851l0,0c-0.021,0.341-0.035,0.735-0.035,1.183l0,0
		v7.065h-0.451H347.4V88.52v-0.472h0.451h1.168v1.024c0.818-0.851,1.91-1.297,3.189-1.285l0,0c1.633-0.028,2.9,0.646,3.551,1.902
		l0,0c0.879-1.247,2.16-1.917,3.707-1.902l0,0c1.305-0.004,2.383,0.401,3.1,1.257l0,0c0.717,0.853,1.033,2.072,1.033,3.596l0,0
		v8.573H363.148L363.148,101.213z"/>
</g>
<path fill="#808080" d="M324,81h-27c9,0,10.801-17.382,10.801-40.5c0-22.665,0-40.5,0-40.5H324V81z"/>
<rect x="327.599" fill="#4D4D4D" width="16.201" height="81"/>
<rect x="347.4" fill="#1A1A1A" width="16.199" height="81"/>
<path fill="#BF1E2D" d="M27,243H0c9,0,10.8-17.383,10.8-40.5c0-22.666,0-40.5,0-40.5H27V243z"/>
<rect x="30.6" y="162" fill="#009445" width="16.2" height="81"/>
<rect x="50.399" y="162" fill="#1B75BC" width="16.2" height="81"/>
<path d="M174.6,243h-27c9,0,10.8-17.383,10.8-40.5c0-22.666,0-40.5,0-40.5h16.2V243z"/>
<rect x="178.199" y="162" width="16.201" height="81"/>
<rect x="198" y="162" width="16.199" height="81"/>
<path fill="#808080" d="M324,243h-27c9,0,10.801-17.383,10.801-40.5c0-22.666,0-40.5,0-40.5H324V243z"/>
<rect x="327.599" y="162" fill="#4D4D4D" width="16.201" height="81"/>
<rect x="347.4" y="162" fill="#1A1A1A" width="16.199" height="81"/>
</svg>
